<?xml version="1.0" encoding="UTF-8"?>
<svg id="Layer_1" xmlns="http://www.w3.org/2000/svg" version="1.1" viewBox="0 0 792 612">
  <!-- Generator: Adobe Illustrator 29.2.0, SVG Export Plug-In . SVG Version: 2.1.0 Build 108)  -->
  <defs>
    <style>
      .st0 {
        fill: #231f20;
      }

      .st1 {
        fill: #f4efe1;
      }
    </style>
  </defs>
  <g>
    <path class="st0" d="M108.69,338.84h-.02c-.15-.11-.29-.2-.29-.7v-14.67c0-6.5-1.62-11.85-4.8-15.89-1.95-2.47-4.48-4.45-7.57-5.94,3.62-1.86,6.56-4.22,8.78-7.07,3.45-4.41,5.2-10.02,5.2-16.66,0-9.25-2.94-16.76-8.75-22.32-5.78-5.53-12.46-8.33-19.87-8.33h-34.08c-1.18,0-3.59.43-4.6,3.68-1.67.1-4.15,1.16-4.15,6.6,0,2.19.2,3.27.74,3.98.5.66,1.34,1.15,2.74,1.62l.06.02c.53.15,1.64.48,1.64,3.11v72.23c0,.54-.06,1.02-.18,1.44-.26.35-.46.73-.6,1.16-.35.42-.82.75-1.43.99-1.28.47-2.13,1.39-2.38,2.61-.1.5-.22,1.45-.22,4.35,0,4.68,3.1,5.04,4.05,5.04h26.02c1.74,0,3.03-.52,3.82-1.54.18-.23.34-.51.47-.84h.04c1.95,0,3.41-.6,4.33-1.79.29-.37.52-.82.69-1.38.19.44.4.86.64,1.27,2.01,3.54,4.63,4.29,6.47,4.29h16.52c.71,0,2.86,0,3.83-1.53.14-.22.26-.48.37-.85h.13c.8,0,3.21,0,4.38-1.83.52-.82.82-1.99.82-5.59,0-2.99-1.51-4.62-2.77-5.46ZM76.8,338.99c-.27-.24-.54-.45-.8-.62-.3-.19-.47-.33-.55-.41-.04-.23-.1-.79-.1-1.93v-24.56c1,.88,1.46,2.28,1.46,4.29v23.22ZM76.8,289.08c0,2.82-.24,5.07-.71,6.75h-.75v-32.66c.95,1.05,1.46,3.14,1.46,6.06v19.85Z"/>
    <path class="st0" d="M613.87,275.05l.08-.06c1.25-.92,1.67-1.35,1.95-1.75.5-.72.67-1.59.67-3.58,0-2.9-.37-4.5-1.26-5.52-.92-1.05-2.37-1.59-4.31-1.59h-10.6c-2.26,0-3.85,1.45-4.16,3.68h-.17c-.84,0-1.56.23-2.14.64-.07-1.58-.6-2.74-1.58-3.44-.83-.6-1.99-.87-3.74-.87h-21.7c-1.01,0-2.48.11-3.55,1.05-.8.7-1.13,1.67-1.26,2.64-1.18.06-2.03.34-2.64.87-.99.87-1.12,2.35-1.12,3.54v3.45c0,.11,0,.21.01.32-.53-1.06-1.16-2.1-1.9-3.1-2.59-3.52-6.09-6.05-10.41-7.53-4.09-1.4-8.72-2.11-13.78-2.11-7.82,0-14.3,1.84-19.25,5.47-1.4,1.03-2.61,2.14-3.64,3.34-.1.07-.2.14-.3.21-5.02,3.68-7.56,8.51-7.56,14.36,0,6.59,3.43,10.22,9.67,10.22,2.76,0,5.39-.46,7.83-1.38,1.66-.63,2.96-1.35,3.91-2.19.22-.07.43-.15.64-.23,2.85-1.07,4.69-2.45,5.63-4.21.85-1.59,1.25-3.87,1.25-7.15,0-.86.06-1.57.16-2.15.4.4.69,1.17.69,2.65v8.91c-2.11.89-4.45,1.83-7.01,2.81-7.58,2.96-12.8,6.16-15.92,9.76-1.94,1.41-3.48,2.89-4.63,4.43-.75,1-1.39,2.18-1.95,3.54.24-3.16.37-6.49.37-9.99,0-18.74-2.86-31.87-8.75-40.15-5.99-8.42-13.72-12.69-22.95-12.69h-29.52c-3.02,0-4.76.42-5.82,1.4-.65.6-1.1,1.41-1.35,2.46-1.17.19-1.98.53-2.53,1.04-.95.88-1.39,2.27-1.39,4.37,0,2.52.25,4.07.8,5.02.61,1.05,1.69,1.82,3.21,2.29.56.17.81.33.91.41v74.32c0,.44-.06.85-.17,1.23-.07.06-.14.12-.21.18-.22-.22-.47-.45-.76-.7-1.49-1.34-2.41-3.31-2.81-6.01l-10.12-67.72c-.25-1.72-.49-3.46-.74-5.21-.81-6.43-1.47-8.51-1.9-9.52-.97-2.29-2.86-3.55-5.31-3.55h-23.54c-2.78,0-3.84,1.41-4.23,2.25-.16.35-.3.78-.4,1.44-2.08.09-2.96,1.05-3.34,1.86-.28.61-.54,1.63-.54,4.96,0,2.37.72,4,2.13,4.84l.05.03c.64.36,1.71,1.06,1.71,1.79s-.09,1.57-.28,2.56l-11.42,72.59v.03c-.02.12-.04.23-.07.35-.32-.45-.73-.86-1.24-1.18-.28-.2-.42-.41-.42-.94v-59.05c0-4.76-1.33-8.8-3.97-12.02-2.76-3.37-6.72-5.07-11.77-5.07s-9.98,1.86-14.28,5.54v-.27c0-.96-.1-2.19-.89-3.14-.95-1.13-2.46-1.26-3.51-1.26h-20.09c-2.28,0-3.88,1.45-4.16,3.68h-.16c-2.16,0-3.56,1.47-3.56,3.75v3.27c0,1.66.79,2.95,2.23,3.64.87.41,1.04.87,1.04,1.48v60.28c0,.48,0,.9-.02,1.25-.58-.57-1.4-1.1-2.52-1.64-1.38-.67-1.38-1.23-1.38-1.46v-74.08c0-1.77.59-2.21,1.75-2.42,2.18-.36,3.06-1.7,3.38-2.47.28-.66.53-1.72.53-5.04,0-1.71-.16-3.43-1.35-4.46-.83-.72-2-1.04-3.79-1.04h-29.52c-2.09,0-3.61,1-4.22,2.66-.45-.69-1.15-1.2-2-1.41-1.19-.29-3.01-.5-4.48-.66-.38-.04-.73-.08-1.01-.12-1.57-.2-3.11-.3-4.56-.3-6.48,0-12.41,2.34-16.71,6.58-.35.34-.67.71-.98,1.1-1.03.71-2,1.5-2.89,2.39-4.01,3.96-5.43,12.07-5.43,18.35v1.98h-1.27c-2.03,0-3.68,1.65-3.68,3.68h-.65c-1.47,0-2.7,1.05-2.97,2.45-1.34-4.22-3.14-7.86-5.4-10.89-5.65-7.55-12.83-11.38-21.34-11.38-7.36,0-13.6,2.76-18.6,8.21-2.53,1.85-4.8,4.27-6.82,7.24-2.88,4.25-4.96,9.64-6.24,16.12-1.18-8.36-3.68-15.13-7.47-20.19-5.65-7.55-12.83-11.38-21.34-11.38-7.36,0-13.6,2.76-18.6,8.21-2.53,1.85-4.8,4.27-6.82,7.24-5.14,7.59-7.74,18.82-7.74,33.39,0,10.16,1.13,18.32,3.35,24.25,2.26,6.02,5.53,10.91,9.73,14.55,4.31,3.73,9.46,5.63,15.32,5.63,4.86,0,9.29-1.35,13.23-4.03,4.87-1.92,9.15-5.5,12.79-10.72,3.12-4.48,5.37-10.16,6.75-16.98.56,4.48,1.44,8.34,2.64,11.56,2.26,6.02,5.53,10.91,9.73,14.55,4.31,3.73,9.46,5.63,15.32,5.63,4.86,0,9.29-1.35,13.23-4.03,4.87-1.92,9.15-5.5,12.79-10.72,5.53-7.93,8.34-19.64,8.34-34.8,0-1.74-.04-3.43-.13-5.07.08,0,.16.01.24.01h5.6v29.6c0,3.73-.35,9.88-.69,11.03-.26.41-.69.75-1.3,1.04-1.3.62-2.14,1.95-2.14,3.38v5.34c0,1.85,1.5,3.35,3.35,3.35h24.71c1.51,0,2.79-1,3.2-2.38h1.12c2.2,0,4-1.79,4-4v-5.28c0-1.75-1.02-3.33-2.6-4.01-.57-.25-.83-.52-.97-.74-.34-1.3-.68-7.34-.68-10.95v-26.38h.6c1.45,0,2.66-1.02,2.96-2.38h1.37c2.03,0,3.68-1.65,3.68-3.68v-12.78c0-2.03-1.65-3.68-3.68-3.68h-4.92v-.29c0-4.2.18-6.55.36-7.84.04,0,.07,0,.11,0h2.47c1.38,0,2.52-1.04,2.68-2.38h1.64c1.85,0,3.35-1.5,3.35-3.35v-.49c.28.21.48.42.58.63.2.44.45,1.34.45,3.14v72.24c-.85.58-1.42,1.32-1.7,2.21-.04.12-.07.25-.11.4-.06.02-.12.04-.18.05h-.04c-1.85.56-2.99,1.49-3.38,2.76-.19.62-.39,1.81-.39,5.97,0,1.47.93,3.19,3.56,3.19h30.08c1.51,0,2.33-.16,2.93-.55.6-.4.91-1,1.06-1.83h.34c.06,0,.11,0,.17,0,.15.56.38.99.7,1.33.86.93,2.26,1.05,3.38,1.05h21.88c2.9,0,4.08-1.25,4.55-2.38,2.01-.05,3.35-.68,4.18-1.59.71,1.32,1.67,2.5,2.9,3.54l.51.44h17.99c1.57,0,2.67-.4,3.35-1.22.2-.24.37-.53.49-.89.68,1.86,2.09,2.11,2.8,2.11h16.22c1.78,0,2.58-.82,2.95-1.5.12-.22.22-.49.3-.87h1.08c2.21,0,3.15-1.16,3.52-1.85.36-.68.56-1.58.56-4.21,0-1.69-.18-2.9-.57-3.81-.48-1.13-1.47-2.07-3.02-2.88-.59-.31-1.56-.93-1.56-1.57,0-.69.14-1.52.4-2.46.14-.4.21-.75.24-1.08l.13-1.02h7.59c.87,5.26,1.06,7.36,1.06,8.2,0,.51-.15,1.18-1.29,1.91l-.04.03c-1.32.88-2.1,1.69-2.45,2.55-.23.56-.45,1.48-.45,4.4,0,3.88,2.35,4.18,3.07,4.18h27.37c2.01,0,2.97-.86,3.41-1.58.06.09.12.17.18.25.71.88,1.83,1.33,3.31,1.33h32.54c5.34,0,10.11-1.41,14.27-4.22,5.21-2.08,9.68-5.93,13.34-11.52,2.39-3.65,4.27-8.09,5.64-13.29-.01.61-.02,1.24-.02,1.88,0,9.75,1.51,16.66,4.62,21.1,3.21,4.58,7.79,6.91,13.61,6.91,2.6,0,5.16-.58,7.61-1.71.88-.41,1.83-.98,2.87-1.74.58-.21,1.16-.44,1.73-.7,1-.46,2.09-1.14,3.28-2.03,1.14,1.9,2.53,3.3,4.15,4.19,2.4,1.32,5.39,1.98,8.9,1.98,2.81,0,5.21-.32,7.14-.96,1.94-.64,3.22-1.36,3.98-2.25.19-.05.37-.11.55-.16,2.34-.77,3.8-1.68,4.59-2.86.75-1.12,1.1-2.67,1.1-4.86,0-2.46-1.17-3.89-2.18-4.66-.42-.35-.71-.6-.9-.78v-55.35c0-1.98-.3-3.89-.86-5.72.32.32.66.54.94.68l.03.02c.32.15.63.61.88,1.29.4,1.08.9,3.13,1.5,6.12l12.71,61.61c-1.34-.71-2.73-.93-3.94-.93-2.56,0-4.76.82-6.54,2.43-.67.61-1.22,1.29-1.65,2.03-.81.37-1.56.86-2.24,1.47-1.71,1.55-2.58,3.62-2.58,6.17,0,3.29,1.2,6.01,3.56,8.07,2.29,2,5.5,3.01,9.56,3.01,3.56,0,6.75-.59,9.5-1.75,1.34-.57,2.6-1.28,3.78-2.12.27-.1.53-.2.79-.31,2.86-1.21,5.38-3.03,7.49-5.42,2.08-2.36,3.64-5.08,4.63-8.08.92-2.82,2.27-8.87,4.12-18.52l10.29-54.24c.59-3.14,1.39-3.77,1.48-3.83ZM139.36,335.62c0,.72-.02,1.38-.06,2-.28-.99-.53-2.56-.53-5.03v-51.22c0-.77.03-1.7.12-2.62.28.86.48,2.11.48,3.92v52.94ZM199.83,335.62c0,.72-.02,1.38-.06,2-.28-.99-.53-2.56-.53-5.03v-51.22c0-.77.03-1.7.12-2.62.28.86.48,2.11.48,3.92v52.94ZM342.08,339.12s0,0,0,0c-.83-.48-.9-.9-.9-1.29v-55.12c.51.31.9,1.04.9,2.74v53.67ZM393.84,318.39l1.97-13.64,1.91,13.64h-3.88ZM467.63,332.41c0,3.69-.32,6.05-.71,7.55h-.56v-75.68c.85,1.34,1.27,3.06,1.27,5.14v62.99ZM531.3,332.05c0,.52-.02.99-.05,1.42-.02-.05-.05-.1-.07-.16-.27-.65-.91-3.07-.91-11.55,0-9.59.52-13.93,1.03-15.87v26.16ZM595.85,281.39l-.02.11c-.02.13-.08.41-.22.97v.05s-1.87,9.75-1.87,9.75l-2.93-13.56c-.25-1.26-.38-2.27-.38-3.01,0-.66.14-.71.28-.77l.04-.02c.84-.35,1.44-.8,1.87-1.28.05.49.11.8.16,1.02.26,1.12.92,2.09,1.94,2.88,1.11.87,1.5,1.54,1.5,1.87,0,.04-.02.44-.38,1.99Z"/>
    <path class="st0" d="M621.78,322.4c-3.76,0-6.9,1.65-9.11,4.78-1.53.79-2.85,1.99-3.95,3.62-1.97,2.91-2.97,6.31-2.97,10.12s1.08,7.23,3.21,9.87c2.23,2.77,5.08,4.17,8.49,4.17,2.68,0,5.06-.91,7.11-2.71,2.53-.63,4.75-2.14,6.63-4.53,2.4-3.05,3.61-6.56,3.61-10.44,0-4.07-1.2-7.58-3.57-10.41-2.48-2.96-5.66-4.47-9.46-4.47Z"/>
    <path class="st0" d="M748.37,339.2c-.42-.35-.71-.6-.9-.78v-55.35c-.01-4.26-1.34-8.21-3.94-11.75-2.59-3.52-6.09-6.05-10.41-7.53-4.09-1.4-8.72-2.11-13.78-2.11-7.82,0-14.3,1.84-19.25,5.47-1.4,1.03-2.61,2.14-3.64,3.34-.1.07-.2.14-.3.21-2.24,1.64-3.98,3.51-5.23,5.59.1-.57.15-1.2.15-1.9,0-.43-.02-.9-.07-1.38l-1.41-19.81c-.26-3.78-.73-4.96-1.21-5.68-.83-1.25-2.16-1.94-3.73-1.94h-3.21c-2.2,0-3.64,1.87-4.12,2.51-.15.19-.28.34-.38.46-.05-.03-.09-.06-.15-.1-2.6-1.9-5.68-2.87-9.16-2.87-5.57.01-10.49,2.2-14.64,6.5-.22.22-.43.46-.64.69-1.12.8-2.19,1.72-3.22,2.79-3.85,4-7.04,9.69-9.48,16.92-2.42,7.16-3.64,16.8-3.64,28.66,0,12.56,1.46,23.04,4.33,31.15,2.91,8.23,6.47,14.15,10.57,17.59,4.18,3.52,9.1,5.3,14.62,5.3,4.29,0,8.1-1.2,11.37-3.57,2.99-1.08,5.66-2.9,7.98-5.45,1.28-1.41,2.36-2.95,3.23-4.6.74,2.55,1.72,4.7,2.95,6.46,3.21,4.58,7.79,6.91,13.61,6.91,2.6,0,5.16-.58,7.61-1.71.88-.41,1.83-.98,2.87-1.74.58-.21,1.16-.44,1.73-.7,1-.46,2.09-1.14,3.28-2.03,1.14,1.9,2.53,3.3,4.15,4.19,2.4,1.32,5.39,1.98,8.9,1.98,2.81,0,5.21-.32,7.14-.96,1.94-.64,3.22-1.36,3.98-2.25.19-.05.37-.11.55-.17,2.34-.77,3.8-1.68,4.59-2.86.75-1.12,1.1-2.67,1.1-4.86,0-2.46-1.17-3.89-2.18-4.66ZM718.36,332.05c0,.52-.02.99-.05,1.42-.02-.05-.05-.1-.07-.16-.27-.65-.91-3.07-.91-11.55,0-9.59.52-13.93,1.03-15.87v26.16ZM718.36,289.55c-2.11.89-4.45,1.83-7.01,2.81-7.58,2.96-12.8,6.16-15.92,9.76-1.94,1.41-3.48,2.89-4.63,4.43-2.53,3.4-3.94,8.81-4.28,16.47-.81-.21-1.74-.31-2.8-.31-3.09,0-5.2.71-6.45,2.16-.44.51-.8,1.13-1.09,1.87-1.2.31-2.11.84-2.75,1.58-1.02,1.19-1.59,3.06-1.73,5.72-.08,1.55-.27,3.54-.69,5.32-.24-.56-.53-1.63-.53-3.63v-69.34c0-.56.01-1.08.03-1.56.8,1.77,1.66,4.5,2.45,8.68.94,5.07,1.76,6.66,2.36,7.47,1.06,1.44,2.82,2.16,5.24,2.16,2.06,0,3.49-.49,4.35-1.5.22-.26.41-.56.57-.89,1.81-.09,3.14-.58,4.05-1.5-.63,1.81-.95,3.75-.95,5.82,0,6.59,3.43,10.22,9.67,10.22,2.76,0,5.39-.46,7.83-1.38,1.66-.63,2.96-1.35,3.91-2.19.22-.07.43-.15.64-.23,2.85-1.07,4.69-2.45,5.63-4.21.84-1.57,1.25-3.91,1.25-7.15,0-.86.06-1.57.16-2.15.4.4.69,1.17.69,2.65v8.91Z"/>
  </g>
  <g>
    <path class="st1" d="M72.86,305.47v30.57c0,1.44.09,2.4.27,2.9.18.49.7,1.01,1.54,1.54,1.09.7,1.64,1.87,1.64,3.51,0,2.38-.22,3.85-.65,4.41-.43.55-1.22.83-2.37.83h-26.02c-1.48,0-2.21-1.07-2.21-3.2s.06-3.38.18-3.98c.12-.6.53-1.02,1.23-1.26,2.26-.9,3.39-2.67,3.39-5.3v-72.23c0-2.67-.99-4.3-2.96-4.87-.99-.33-1.6-.65-1.85-.98-.25-.33-.37-1.29-.37-2.88,0-3.18.86-4.77,2.59-4.77h34.08c6.78,0,12.83,2.55,18.15,7.64,5.32,5.1,7.98,11.94,7.98,20.52,0,12.2-6.23,20.18-18.68,23.91,11.38,2.51,17.07,9.72,17.07,21.63v14.67c0,1.23.47,2.16,1.42,2.77,1.11.74,1.66,1.87,1.66,3.39,0,2.38-.14,3.8-.43,4.25-.29.45-1.05.68-2.28.68h-16.52c-1.97,0-3.6-1.12-4.87-3.36-1.27-2.24-1.91-5-1.91-8.29v-24.84c0-4.85-2.45-7.27-7.33-7.27h-2.77ZM72.86,256.78v41.54h4.01c4.07,0,6.1-4.09,6.1-12.27v-19.85c0-3.45-.65-5.89-1.94-7.3-1.29-1.42-3.32-2.13-6.07-2.13h-2.1Z"/>
    <path class="st1" d="M141.09,264.17c7.72,0,14.18,3.46,19.35,10.39,5.18,6.92,7.77,17.21,7.77,30.85,0,14.71-2.63,25.84-7.89,33.38-5.26,7.54-11.81,11.31-19.66,11.31-5.42,0-10.13-1.73-14.11-5.18-3.99-3.45-7.06-8.05-9.21-13.81-2.16-5.75-3.24-13.62-3.24-23.61,0-14.26,2.47-25.04,7.43-32.36,4.95-7.31,11.47-10.97,19.57-10.97ZM145.53,279.64c0-5.09-1.48-7.64-4.44-7.64-3.21,0-4.81,3.12-4.81,9.37v51.22c0,6.21,1.46,9.31,4.38,9.31,3.25,0,4.87-3.1,4.87-9.31v-52.94Z"/>
    <path class="st1" d="M201.55,264.17c7.72,0,14.18,3.46,19.35,10.39,5.18,6.92,7.77,17.21,7.77,30.85,0,14.71-2.63,25.84-7.89,33.38-5.26,7.54-11.81,11.31-19.66,11.31-5.42,0-10.13-1.73-14.11-5.18-3.99-3.45-7.06-8.05-9.21-13.81-2.16-5.75-3.24-13.62-3.24-23.61,0-14.26,2.47-25.04,7.43-32.36,4.95-7.31,11.47-10.97,19.57-10.97ZM205.99,279.64c0-5.09-1.48-7.64-4.44-7.64-3.21,0-4.81,3.12-4.81,9.37v51.22c0,6.21,1.46,9.31,4.38,9.31,3.25,0,4.87-3.1,4.87-9.31v-52.94Z"/>
    <path class="st1" d="M238.9,347.72v-5.34c0-.74.43-1.41,1.09-1.73.98-.47,1.7-1.09,2.14-1.85.6-1.03.89-8.88.89-11.88v-31.43h-7.43c-.66,0-1.19-.53-1.19-1.19v-12.78c0-.66.53-1.19,1.19-1.19h7.43v-7.49c0-6.45,1.5-13.69,4.89-17.04,3.39-3.35,8.51-5.86,14.96-5.86,1.36,0,2.77.09,4.25.28,1.27.16,3.87.4,5.21.73.38.09.65.44.65.84v12.21c0,.48-.39.86-.86.86h-2.47c-2.43,0-4.78.12-6.17,2.01-1.06,1.44-1.1,8.03-1.1,10.7v2.77h7.41c.66,0,1.19.53,1.19,1.19v12.78c0,.66-.53,1.19-1.19,1.19h-7.41v31.25c0,3,.31,10.9.92,12.03.46.85,1.2,1.49,2.22,1.94.68.3,1.11.99,1.11,1.74v5.28c0,.83-.68,1.51-1.51,1.51h-24.71c-.83,0-1.51-.68-1.51-1.51Z"/>
    <path class="st1" d="M277.12,254.93v-3.27c0-1.27.68-1.91,2.03-1.91h29.52c1.11,0,1.83.14,2.16.43.33.29.49,1.15.49,2.59,0,2.18-.11,3.53-.34,4.07-.23.53-.73.86-1.51.99-2.55.45-3.82,2.08-3.82,4.87v74.08c0,1.56.92,2.79,2.77,3.7,1.19.58,1.91,1.09,2.16,1.54.25.45.37,1.23.37,2.34v2.4c0,1.32-.12,2.06-.37,2.22-.25.16-.88.25-1.91.25h-30.08c-1.15,0-1.73-.45-1.73-1.36,0-2.96.1-4.77.31-5.42.21-.66.92-1.17,2.16-1.54,2.22-.62,3.33-1.79,3.33-3.51v-73.16c0-1.73-.21-3.03-.62-3.91-.41-.88-1.32-1.61-2.71-2.19-1.03-.45-1.65-.85-1.88-1.2-.23-.35-.34-1.02-.34-2Z"/>
    <path class="st1" d="M338.69,273.42c4.89-6.16,10.48-9.25,16.76-9.25,4.29,0,7.58,1.39,9.85,4.16,2.27,2.77,3.41,6.26,3.41,10.45v59.05c0,1.32.51,2.32,1.54,3.02.94.58,1.42,2.06,1.42,4.44,0,1.89-.15,3.02-.46,3.39s-.96.55-1.94.55h-17.32c-2.47-2.1-3.7-4.83-3.7-8.2v-58.61c0-3.21-1.32-4.81-3.94-4.81-1.73,0-3.6.9-5.61,2.71v57.51c0,1.48.72,2.63,2.16,3.45.86.49,1.29,1.4,1.29,2.71v3.14c0,1.4-1.01,2.1-3.02,2.1h-21.88c-1.07,0-1.75-.15-2.03-.46-.29-.31-.43-1.08-.43-2.31v-2.28c0-1.19.37-2.03,1.11-2.53.99-.7,1.62-1.36,1.91-1.97.29-.62.43-1.97.43-4.07v-60.28c0-1.44-.7-2.49-2.1-3.14-.78-.37-1.17-1.03-1.17-1.97v-3.27c0-1.27.57-1.91,1.73-1.91h20.09c.86,0,1.4.12,1.6.37.21.25.31.76.31,1.54v6.47Z"/>
    <path class="st1" d="M405.31,327.97h-15.36l-.71,5.67c0,.12-.04.31-.13.55-.35,1.19-.52,2.26-.52,3.2,0,1.48.96,2.74,2.88,3.76,1.02.53,1.65,1.09,1.9,1.66.24.58.37,1.52.37,2.84,0,1.69-.09,2.7-.28,3.05-.18.35-.63.52-1.32.52h-16.22c-.9,0-1.35-.94-1.35-2.84,0-2.26.72-4.09,2.16-5.49,1.36-1.27,2.14-2.63,2.34-4.07l11.41-72.54c.21-1.11.31-2.08.31-2.9,0-1.27-.89-2.4-2.66-3.39-.82-.49-1.24-1.58-1.24-3.27,0-2.26.12-3.66.37-4.19.25-.53.9-.8,1.97-.8h23.54c1.44,0,2.44.68,3.02,2.03.57,1.36,1.15,4.31,1.73,8.88.25,1.77.49,3.51.74,5.24l10.12,67.74c.49,3.29,1.7,5.79,3.64,7.52.53.45.88.81,1.05,1.08.16.27.25,1.08.25,2.43,0,2.1-.14,3.38-.43,3.85-.29.47-.9.71-1.85.71h-27.37c-.82,0-1.23-.78-1.23-2.34,0-1.97.1-3.2.31-3.7.2-.49.8-1.07,1.78-1.73,1.43-.91,2.14-2.06,2.14-3.46s-.45-4.78-1.34-10.04ZM397.93,272.71l-6.96,48.17h13.7l-6.74-48.17Z"/>
    <path class="st1" d="M440.94,335.55v-74.64c-.12-.82-.86-1.44-2.22-1.85-1.07-.33-1.79-.81-2.16-1.45-.37-.64-.55-2-.55-4.1,0-1.52.27-2.53.8-3.02.53-.49,1.91-.74,4.13-.74h29.52c8.42,0,15.4,3.88,20.92,11.65,5.53,7.77,8.29,20.67,8.29,38.71,0,16.44-2.67,28.73-8.01,36.89-5.34,8.16-12.41,12.23-21.2,12.23h-32.54c-.9,0-1.53-.22-1.88-.65-.35-.43-.52-1.39-.52-2.87,0-1.77.06-2.88.18-3.33.12-.45.72-.96,1.79-1.54,2.3-1.19,3.45-2.96,3.45-5.3ZM463.87,257.09v85.36h3.27c2.3,0,3.99-.96,5.05-2.87,1.07-1.91,1.6-5.31,1.6-10.2v-62.99c0-2.75-.66-4.99-1.97-6.72-1.32-1.73-3.18-2.59-5.61-2.59h-2.34Z"/>
    <path class="st1" d="M537.46,289.51v-11.9c0-3.29-1.34-4.93-4.01-4.93-3.66,0-5.49,2.49-5.49,7.46,0,2.79-.32,4.79-.96,5.98-.64,1.19-2.08,2.21-4.31,3.05-2.24.84-4.63,1.26-7.18,1.26-5.22,0-7.83-2.79-7.83-8.38,0-5.26,2.27-9.55,6.81-12.88,4.54-3.33,10.47-4.99,17.78-4.99,4.81,0,9.13.66,12.97,1.97,3.84,1.31,6.91,3.53,9.21,6.65,2.3,3.12,3.45,6.55,3.46,10.28v56.23c.08.29.7.9,1.85,1.85.82.62,1.23,1.52,1.23,2.71,0,1.64-.23,2.8-.68,3.48-.45.68-1.55,1.3-3.3,1.88-1.75.57-3.93.86-6.56.86-3.21,0-5.88-.59-8.01-1.76-2.14-1.17-3.8-3.46-4.99-6.87-3.57,3.7-6.47,6.06-8.69,7.09-2.22,1.03-4.5,1.54-6.84,1.54-5.21,0-9.25-2.04-12.11-6.13-2.86-4.08-4.29-10.76-4.29-20.04,0-9.28,1.34-15.71,4.01-19.3,2.67-3.59,7.89-6.91,15.65-9.94,4.93-1.89,9.02-3.61,12.27-5.17ZM537.46,297.52c-4.64,2.05-7.42,4.36-8.32,6.92-.9,2.56-1.36,8.34-1.36,17.32,0,6.61.37,10.78,1.11,12.52s2.01,2.61,3.82,2.61c3.16,0,4.75-2.63,4.75-7.88v-31.51Z"/>
    <path class="st1" d="M595.53,312.35l6.19-32.46c.12-.49.2-.86.24-1.11.29-1.23.43-2.03.43-2.4,0-1.07-.74-2.18-2.21-3.33-.69-.53-1.12-1.15-1.28-1.85-.16-.7-.24-2.1-.24-4.19,0-1.31.57-1.97,1.73-1.97h10.6c1.19,0,2,.25,2.43.74.43.49.65,1.79.65,3.88,0,1.23-.07,1.95-.22,2.16-.14.21-.61.6-1.39,1.17-1.15.78-1.99,2.59-2.53,5.42l-10.29,54.24c-1.81,9.45-3.15,15.52-4.04,18.21-.88,2.69-2.26,5.09-4.13,7.21-1.87,2.12-4.07,3.71-6.59,4.78-2.53,1.07-5.45,1.6-8.78,1.6-3.62,0-6.4-.85-8.35-2.56-1.95-1.71-2.93-3.94-2.93-6.69,0-2.01.66-3.62,1.97-4.81,1.31-1.19,2.94-1.79,4.87-1.79,2.88,0,4.91,1.68,6.1,5.05.57,1.64,1.42,2.47,2.53,2.47,2.1,0,3.14-1.09,3.14-3.27,0-.7-.41-3-1.23-6.9l-13.19-63.92c-.62-3.08-1.14-5.21-1.57-6.38-.43-1.17-1.04-1.94-1.82-2.31-.74-.37-1.11-1.13-1.11-2.28v-3.45c0-1.15.16-1.87.49-2.16.33-.29.96-.43,1.91-.43h21.7c1.15,0,1.91.13,2.28.4.37.27.55.87.55,1.82,0,2.01-.08,3.33-.25,3.94-.16.62-.63,1.09-1.41,1.42-1.23.49-1.84,1.52-1.84,3.08,0,.9.14,2.08.43,3.51l7.15,33.13Z"/>
    <path class="st1" d="M621.78,324.88c3.04,0,5.56,1.19,7.55,3.57,1.99,2.38,2.99,5.32,2.99,8.81s-1.03,6.3-3.08,8.91c-2.06,2.61-4.54,3.91-7.46,3.91s-5.19-1.16-7.06-3.48c-1.87-2.32-2.8-5.23-2.8-8.72s.88-6.48,2.65-9.09c1.77-2.61,4.17-3.91,7.21-3.91Z"/>
    <path class="st1" d="M681.44,248.09h3.21c.74,0,1.29.28,1.66.83.37.55.64,2.04.8,4.47l1.42,19.85c.04.41.06.8.06,1.17,0,1.44-.25,2.45-.74,3.02-.49.58-1.48.86-2.96.86-1.81,0-3.06-.47-3.76-1.42-.7-.94-1.38-3.18-2.03-6.72-1.69-8.96-4.09-13.44-7.21-13.44-2.59,0-3.88,3.23-3.88,9.68v69.34c0,4.6,1.36,6.9,4.07,6.9,3.45,0,5.38-3.84,5.79-11.53.12-2.22.55-3.76,1.29-4.62.74-.86,2.26-1.29,4.56-1.29,1.73,0,2.93.32,3.61.96.68.64,1.02,1.88,1.02,3.73,0,5.88-1.77,10.76-5.3,14.64-3.53,3.88-7.93,5.82-13.19,5.82s-9.57-1.62-13.44-4.87c-3.86-3.25-7.2-8.84-10.02-16.8-2.81-7.95-4.22-18.13-4.22-30.54,0-11.71,1.18-21.07,3.54-28.07,2.36-7.01,5.38-12.42,9.06-16.23,3.68-3.82,7.96-5.73,12.85-5.74,2.96,0,5.53.8,7.7,2.4.82.58,1.44.86,1.85.86.49,0,1.19-.57,2.1-1.73.78-1.03,1.5-1.54,2.16-1.54Z"/>
    <path class="st1" d="M724.52,289.51v-11.9c0-3.29-1.34-4.93-4.01-4.93-3.66,0-5.49,2.49-5.49,7.46,0,2.79-.32,4.79-.96,5.98-.64,1.19-2.08,2.21-4.31,3.05-2.24.84-4.63,1.26-7.18,1.26-5.22,0-7.83-2.79-7.83-8.38,0-5.26,2.27-9.55,6.81-12.88,4.54-3.33,10.47-4.99,17.78-4.99,4.81,0,9.13.66,12.97,1.97,3.84,1.31,6.91,3.53,9.21,6.65,2.3,3.12,3.45,6.55,3.46,10.28v56.23c.08.29.7.9,1.85,1.85.82.62,1.23,1.52,1.23,2.71,0,1.64-.23,2.8-.68,3.48-.45.68-1.55,1.3-3.3,1.88-1.75.57-3.93.86-6.56.86-3.2,0-5.88-.59-8.01-1.76-2.14-1.17-3.8-3.46-4.99-6.87-3.57,3.7-6.47,6.06-8.69,7.09-2.22,1.03-4.5,1.54-6.84,1.54-5.21,0-9.25-2.04-12.11-6.13-2.86-4.08-4.29-10.76-4.29-20.04,0-9.28,1.34-15.71,4.01-19.3,2.67-3.59,7.89-6.91,15.65-9.94,4.93-1.89,9.02-3.61,12.27-5.17ZM724.52,297.52c-4.64,2.05-7.42,4.36-8.32,6.92-.9,2.56-1.36,8.34-1.36,17.32,0,6.61.37,10.78,1.11,12.52.74,1.74,2.01,2.61,3.82,2.61,3.16,0,4.75-2.63,4.75-7.88v-31.51Z"/>
  </g>
</svg>